<?xml version="1.0" encoding="utf-8"?><svg xmlns="http://www.w3.org/2000/svg" xmlns:xlink="http://www.w3.org/1999/xlink"><symbol viewBox="0 0 492 492" id="back" xmlns="http://www.w3.org/2000/svg"><path d="M198.608 246.104L382.664 62.04c5.068-5.056 7.856-11.816 7.856-19.024 0-7.212-2.788-13.968-7.856-19.032l-16.128-16.12C361.476 2.792 354.712 0 347.504 0s-13.964 2.792-19.028 7.864L109.328 227.008c-5.084 5.08-7.868 11.868-7.848 19.084-.02 7.248 2.76 14.028 7.848 19.112l218.944 218.932c5.064 5.072 11.82 7.864 19.032 7.864 7.208 0 13.964-2.792 19.032-7.864l16.124-16.12c10.492-10.492 10.492-27.572 0-38.06L198.608 246.104z"/></symbol><symbol viewBox="0 0 480 480" id="bag" xmlns="http://www.w3.org/2000/svg"><path d="M372.052 480H107.948c-23.46 0-41.906-20.152-39.845-43.516l24.353-276C94.291 139.685 111.42 124 132.301 124H157V83c0-45.767 37.233-83 83-83s83 37.233 83 83v41h24.699a8 8 0 0 1 0 16H323v36a8 8 0 0 1-16 0v-36H202a8 8 0 0 1 0-16h105V83c0-36.944-30.056-67-67-67s-67 30.056-67 67v93a8 8 0 0 1-16 0v-36h-24.699c-12.528 0-22.806 9.411-23.907 21.891l-24.353 276C82.8 451.953 93.848 464 107.948 464h264.104c14.117 0 25.147-12.064 23.907-26.109l-24.353-276a8 8 0 0 1 15.938-1.406l24.353 276c2.062 23.369-16.39 43.515-39.845 43.515zM194 411h-58a8 8 0 0 0 0 16h58a8 8 0 0 0 0-16zm0-40h-58a8 8 0 0 0 0 16h58a8 8 0 0 0 0-16z"/></symbol><symbol viewBox="0 0 384 384" id="call" xmlns="http://www.w3.org/2000/svg"><path d="M353.188 252.052c-23.51 0-46.594-3.677-68.469-10.906-10.719-3.656-23.896-.302-30.438 6.417l-43.177 32.594c-50.073-26.729-80.917-57.563-107.281-107.26l31.635-42.052c8.219-8.208 11.167-20.198 7.635-31.448-7.26-21.99-10.948-45.063-10.948-68.583C132.146 13.823 118.323 0 101.333 0h-70.52C13.823 0 0 13.823 0 30.813 0 225.563 158.438 384 353.188 384c16.99 0 30.813-13.823 30.813-30.813v-70.323c-.001-16.989-13.824-30.812-30.813-30.812z"/></symbol><symbol viewBox="0 0 512 512" id="car" xmlns="http://www.w3.org/2000/svg"><g data-name="13-car"><path d="M120 236a52 52 0 1 0 52 52 52.059 52.059 0 0 0-52-52zm0 76a24 24 0 1 1 24-24 24 24 0 0 1-24 24zm288-76a52 52 0 1 0 52 52 52.059 52.059 0 0 0-52-52zm0 76a24 24 0 1 1 24-24 24 24 0 0 1-24 24z"/><path d="M477.4 193.04L384 176l-79.515-65.975A44.109 44.109 0 0 0 276.526 100H159.38a43.785 43.785 0 0 0-34.359 16.514L74.232 176H40a36.04 36.04 0 0 0-36 36v44a44.049 44.049 0 0 0 44 44h9.145a64 64 0 1 1 125.71 0h162.29a64 64 0 1 1 125.71 0H472a36.04 36.04 0 0 0 36-36v-35.368a35.791 35.791 0 0 0-30.6-35.592zM180 164a12 12 0 0 1-12 12h-52.755a6 6 0 0 1-4.563-9.9l34.916-40.9a12 12 0 0 1 9.126-4.2H168a12 12 0 0 1 12 12zm60 56h-16a12 12 0 0 1 0-24h16a12 12 0 0 1 0 24zm94.479-43.706l-114.507-.266a12 12 0 0 1-11.972-12V133a12 12 0 0 1 12-12h57.548a12 12 0 0 1 7.433 2.58l53.228 42a6 6 0 0 1-3.73 10.714z"/></g></symbol><symbol viewBox="0 0 426.667 426.667" id="check" xmlns="http://www.w3.org/2000/svg"><path d="M421.876 56.307c-6.548-6.78-17.352-6.968-24.132-.42-.142.137-.282.277-.42.42L119.257 334.375l-90.334-90.334c-6.78-6.548-17.584-6.36-24.132.42-6.388 6.614-6.388 17.099 0 23.713l102.4 102.4c6.665 6.663 17.468 6.663 24.132 0L421.456 80.44c6.78-6.549 6.968-17.353.42-24.133z"/></symbol><symbol viewBox="0 0 490.688 490.688" id="down-arrow" xmlns="http://www.w3.org/2000/svg"><path d="M472.328 120.529L245.213 347.665 18.098 120.529c-4.237-4.093-10.99-3.975-15.083.262-3.992 4.134-3.992 10.687 0 14.82l234.667 234.667c4.165 4.164 10.917 4.164 15.083 0l234.667-234.667c4.237-4.093 4.354-10.845.262-15.083-4.093-4.237-10.845-4.354-15.083-.262-.089.086-.176.173-.262.262l-.021.001z"/><path d="M245.213 373.415a10.663 10.663 0 0 1-7.552-3.115L2.994 135.633c-4.093-4.237-3.975-10.99.262-15.083 4.134-3.992 10.687-3.992 14.82 0l227.136 227.115 227.115-227.136c4.093-4.237 10.845-4.354 15.083-.262 4.237 4.093 4.354 10.845.262 15.083-.086.089-.173.176-.262.262L252.744 370.279a10.672 10.672 0 0 1-7.531 3.136z"/></symbol><symbol viewBox="0 0 512 512" id="emailFull" xmlns="http://www.w3.org/2000/svg"><path d="M339.392 258.624L512 367.744V144.896zM0 144.896v222.848l172.608-109.12zM480 80H32C16.032 80 3.36 91.904.96 107.232L256 275.264l255.04-168.032C508.64 91.904 495.968 80 480 80zM310.08 277.952l-45.28 29.824a15.983 15.983 0 0 1-8.8 2.624c-3.072 0-6.112-.864-8.8-2.624l-45.28-29.856L1.024 404.992C3.488 420.192 16.096 432 32 432h448c15.904 0 28.512-11.808 30.976-27.008L310.08 277.952z"/></symbol><symbol viewBox="0 0 24 24" id="facebook" xmlns="http://www.w3.org/2000/svg"><path d="M15.997 3.985h2.191V.169C17.81.117 16.51 0 14.996 0c-3.159 0-5.323 1.987-5.323 5.639V9H6.187v4.266h3.486V24h4.274V13.267h3.345l.531-4.266h-3.877V6.062c.001-1.233.333-2.077 2.051-2.077z"/></symbol><symbol viewBox="0 0 467.322 467.321" id="flower" xmlns="http://www.w3.org/2000/svg"><path d="M395.139 107.961c-3.636-.858-7.267-1.429-10.882-1.825 28.762-21.627 48.886-49.688 27.736-77.089-32.697-42.351-73.977-17.179-101.728 19.568-.37-12.817-4.87-24.819-16.006-34.36-24.034-20.591-60.997-16.3-87.542-3.344-19.941 9.734-36.181 28.226-36.851 51.178-.167 5.687.665 11.131 2.219 16.351-36.607-23.206-81.903-32.605-93.315 13.99-8.282 33.819 27.964 52.184 65.544 60.311-7.427 1.28-14.742 3.006-21.818 5.424-13.649 4.666-27.357 12.045-35.088 24.722-6.396 10.481-6.345 23.092-.843 33.88 5.185 10.171 15.48 16.943 26 20.525 17.966 6.119 36.571 1.808 52.486-7.497-21.967 20.938-38.354 45.765-48.238 76.177-.193.584-.343 1.198-.531 1.793-24.361-19.525-54.157-28.787-86.805-26.583-3.245.218-5.835 1.401-7.82 3.128-5.408 2.295-9.646 7.718-8.181 15.061 9.864 49.394 46.098 74.723 93.214 69.69-1.523 29.406-.073 59.677.93 85.482.66 17.007 27.119 17.067 26.458 0-3.121-80.338-2.684-168.857 66.727-220.663 3.496 4.113 7.473 7.587 11.753 10.532-17.648 23.368-28.906 54.202-18.268 82.796 3.979 10.684 10.816 21.759 21.487 26.862 11.481 5.484 24.758 3.981 33.583-5.732 7.77-8.557 11.009-19.871 12.481-31.185 5.47 7.303 12.822 13.319 22.679 17.291 24.023 9.679 53.532-3.418 66.496-24.648 3.463-5.667 5.453-11.721 6.235-17.885 23.146 13.843 47.561 16.209 64.262-9.521 20.119-30.991-2.554-55.259-32.966-71.846 10.775.452 21.846-1.021 33.23-5.149 22.49-8.153 38.242-28.625 30.254-52.917-7.95-24.169-33.502-39.004-56.892-44.517zM109.077 342.614c-32.951 5.962-55.842-7.403-66.387-35.561 26.118 1.081 48.391 10.999 67.087 29.904-.279 1.859-.457 3.778-.7 5.657zM391.204 45.063c19.394 25.116-61.555 64.213-83.562 71.615-.406-.371-.782-.803-1.198-1.155 7.666-30.603 52.474-112.277 84.76-70.46zM177.122 182.61a105.632 105.632 0 0 1-2.788 3.864c-10.806 13.715-25.438 26.337-43.846 26.431-19.134.099-28.089-17.28-9.422-28.038 14.929-8.6 36.566-7.853 53.293-8.554 2.31-.099 4.618-.079 6.931-.119a155.221 155.221 0 0 1-4.168 6.416zm-72.565-81.308c-2.963-9.133 8.704-15.087 15.684-15.404 10.831-.493 21.965 5.512 31.125 10.524 15.079 8.241 31.709 20.624 41.287 35.761-26.934.973-80.464-7.328-88.096-30.881zM208.58 89.018c-3.295-3.676-3.463-3.841-6.645-9-26.088-42.233 60.415-78.31 79.91-38.791.462 1.32.898 2.653 1.219 4.009.192.805.299 1.181.375 1.409-.005.249.006.67.066 1.577.132 1.782.106 3.575.041 5.359a49.215 49.215 0 0 1-.198 2.839c-.021.251-.03.396-.036.495-.04.238-.091.53-.162.962-.884 5.304-2.463 10.476-4.291 15.521-3.012 8.331-8.714 18.692-14.721 28.229-10.654.437-21.495 3.235-31.707 8.196-8.61-6.084-16.514-12.609-23.851-20.805zm27.268 224.17c-.015.157-.035.355-.063.568a68.711 68.711 0 0 1-1.351 6.764 51.283 51.283 0 0 1-1.239 4.158c-.135.396-.285.787-.432 1.179a30.83 30.83 0 0 1-1.574 2.935c-.15.249-.323.487-.485.731-.399.452-.815.894-1.262 1.311-.005.005-.01.01-.015.01-.023.021-.048.03-.074.041-.104.03-.213.056-.317.081a13.552 13.552 0 0 1-.909-.27c-.104-.061-.213-.106-.317-.162-.51-.284-.982-.625-1.468-.955-.198-.178-.406-.351-.597-.538a29.972 29.972 0 0 1-2.054-2.147c-.074-.082-.143-.173-.208-.254-1.338-1.904-2.485-3.936-3.483-6.033-.048-.091-.083-.192-.132-.284-.021-.051-.046-.111-.061-.162a50.886 50.886 0 0 1-1.285-3.885 59.267 59.267 0 0 1-.947-3.813 48.444 48.444 0 0 1-.358-1.884c-.516-4.438-.536-8.928-.119-13.371.02-.254.051-.508.083-.762a75.47 75.47 0 0 1 .686-3.737c.592-2.828 1.374-5.611 2.278-8.358.432-1.3.898-2.579 1.394-3.859a13.4 13.4 0 0 1 .219-.559c.154-.35.312-.711.472-1.056 1.311-2.88 2.798-5.678 4.39-8.404 1.711-2.94 3.598-5.778 5.578-8.541l.262-.346c.482 2.61.972 5.216 1.399 7.836.249 1.538.482 3.082.706 4.631.053.36.104.721.149 1.081.033.224.059.447.079.604.386 3.021.703 6.054.972 9.09.827 9.419 1.064 18.94.083 28.36zm16.001-84.361c-18.913 2.268-30.841-8.409-36.051-23.473-1.389-4.009-2.297-8.325-2.739-12.792-2.367-23.976 9.904-49.299 31.875-61.042 27.269-14.574 55.853 7.79 58.387 34.924 2.776 29.862-21.177 58.747-51.472 62.383zm79.46 59.087c-.005.076-.005.082-.005.143-.046.208-.092.371-.157.706-.249 1.219-.595 2.412-.97 3.595-.133.401-.279.787-.427 1.179-.046.086-.056.111-.112.213-.527 1.107-1.147 2.174-1.787 3.22-.238.396-.833 1.229-1.26 1.833a44.31 44.31 0 0 1-4.707 4.834c-.243.214-.355.32-.508.457-.091.062-.127.081-.243.173a46.546 46.546 0 0 1-3.153 2.047 48.988 48.988 0 0 1-3.312 1.797c-.351.168-.528.27-.721.371-.203.071-.392.137-.741.264-2.352.874-4.783 1.509-7.241 1.991-.188.035-.249.051-.401.081-.137.01-.203.01-.411.03-1.447.132-2.895.157-4.353.138-.711-.011-1.421-.097-2.132-.152-.731-.112-1.828-.279-2.352-.401-1.219-.279-2.412-.655-3.595-1.057-.062-.021-.127-.046-.193-.065-.432-.203-.863-.401-1.285-.615-.959-.487-1.879-1.051-2.782-1.625-.32-.203-.528-.335-.716-.446-1.691-1.392-3.225-2.961-4.656-4.621-.214-.3-.438-.595-.646-.904-.731-1.061-1.386-2.168-2.021-3.29-.66-1.158-1.244-2.361-1.803-3.57l-.016-.035c-.325-.822-.614-1.66-.904-2.498-1.03-3.021-1.777-6.14-2.392-9.268a68.754 68.754 0 0 1-.355-2.026c-.046-.284-.076-.406-.106-.568-.005-.062-.005-.071-.016-.147-.273-2.255-.432-4.529-.548-6.8-.386-7.032.071-15.599.797-22.221 4.337-1.646 8.587-3.636 12.649-6.149 1.295-.803 2.498-1.752 3.742-2.631 3.626 1.936 7.206 3.94 10.699 6.119 2.194 1.366 4.332 2.823 6.449 4.312.798.563 1.569 1.143 2.352 1.727-.523-.366 2.143 1.731 2.452 1.995a86.634 86.634 0 0 1 8.968 8.714c.615.69 1.199 1.401 1.788 2.112.065.097.091.138.197.274 1.174 1.61 2.234 3.301 3.235 5.022.548.949 1.01 1.955 1.492 2.945.244.66.965 2.422 1.153 3.026.416 1.325.721 2.681.995 4.042.051.625.106 1.254.132 1.879.065 1.271.014 2.566-.073 3.85zm70.757-25.085c-8.933 41.319-73.636-31.544-81.897-49.472 14.935 3.448 29.63 8.549 43.559 14.746 11.455 5.096 41.928 18.117 38.338 34.726zm5.941-80.686c-29.224 9.031-56.452-8.018-79.242-25.08a70.36 70.36 0 0 0-2.031-9.181c30.087-19.37 79.247-25.413 99.279 10.618 7.297 13.124-7.662 20.444-18.006 23.643z"/></symbol><symbol viewBox="0 -28 512.001 512" id="heart" xmlns="http://www.w3.org/2000/svg"><path d="M256 455.516a30.022 30.022 0 0 1-19.793-7.438c-20.684-18.086-40.625-35.082-58.219-50.074l-.09-.078c-51.582-43.957-96.125-81.918-127.117-119.313C16.137 236.81 0 197.172 0 153.871c0-42.07 14.426-80.883 40.617-109.293C67.121 15.832 103.488 0 143.031 0c29.555 0 56.621 9.344 80.446 27.77C235.5 37.07 246.398 48.453 256 61.73c9.605-13.277 20.5-24.66 32.527-33.96C312.352 9.344 339.418 0 368.973 0c39.539 0 75.91 15.832 102.414 44.578C497.578 72.988 512 111.801 512 153.871c0 43.3-16.133 82.938-50.777 124.738-30.993 37.399-75.532 75.356-127.106 119.309-17.625 15.016-37.597 32.039-58.328 50.168a30.046 30.046 0 0 1-19.789 7.43zM143.031 29.992c-31.066 0-59.605 12.399-80.367 34.914-21.07 22.856-32.676 54.45-32.676 88.965 0 36.418 13.535 68.988 43.883 105.606 29.332 35.394 72.961 72.574 123.477 115.625l.093.078c17.66 15.05 37.68 32.113 58.516 50.332 20.961-18.254 41.012-35.344 58.707-50.418 50.512-43.051 94.137-80.223 123.469-115.617 30.344-36.618 43.879-69.188 43.879-105.606 0-34.516-11.606-66.11-32.676-88.965-20.758-22.515-49.3-34.914-80.363-34.914-22.758 0-43.653 7.235-62.102 21.5-16.441 12.719-27.894 28.797-34.61 40.047-3.452 5.785-9.53 9.238-16.261 9.238s-12.809-3.453-16.262-9.238c-6.71-11.25-18.164-27.328-34.61-40.047-18.448-14.265-39.343-21.5-62.097-21.5zm0 0"/></symbol><symbol viewBox="0 -28 512 512" id="heartFull" xmlns="http://www.w3.org/2000/svg"><path d="M471.383 44.578C444.879 15.832 408.512 0 368.973 0c-29.555 0-56.621 9.344-80.45 27.77C276.5 37.07 265.605 48.45 256 61.73c-9.602-13.277-20.5-24.66-32.527-33.96C199.648 9.344 172.582 0 143.027 0c-39.539 0-75.91 15.832-102.414 44.578C14.426 72.988 0 111.801 0 153.871c0 43.3 16.137 82.938 50.781 124.742 30.992 37.395 75.535 75.356 127.117 119.313 17.614 15.012 37.579 32.027 58.309 50.152A30.023 30.023 0 0 0 256 455.516a30.03 30.03 0 0 0 19.785-7.43c20.73-18.129 40.707-35.152 58.328-50.172 51.575-43.95 96.117-81.906 127.11-119.305C495.867 236.81 512 197.172 512 153.867c0-42.066-14.426-80.879-40.617-109.289zm0 0"/></symbol><symbol viewBox="0 0 511 511.9" id="instagram" xmlns="http://www.w3.org/2000/svg"><path d="M510.95 150.5c-1.2-27.2-5.598-45.898-11.9-62.102-6.5-17.199-16.5-32.597-29.6-45.398-12.802-13-28.302-23.102-45.302-29.5-16.296-6.3-34.898-10.7-62.097-11.898C334.648.3 325.949 0 256.449 0s-78.199.3-105.5 1.5c-27.199 1.2-45.898 5.602-62.097 11.898-17.204 6.5-32.602 16.5-45.403 29.602-13 12.8-23.097 28.3-29.5 45.3-6.3 16.302-10.699 34.9-11.898 62.098C.75 177.801.449 186.5.449 256s.301 78.2 1.5 105.5c1.2 27.2 5.602 45.898 11.903 62.102 6.5 17.199 16.597 32.597 29.597 45.398 12.801 13 28.301 23.102 45.301 29.5 16.3 6.3 34.898 10.7 62.102 11.898 27.296 1.204 36 1.5 105.5 1.5s78.199-.296 105.5-1.5c27.199-1.199 45.898-5.597 62.097-11.898a130.934 130.934 0 0 0 74.903-74.898c6.296-16.301 10.699-34.903 11.898-62.102 1.2-27.3 1.5-36 1.5-105.5s-.102-78.2-1.3-105.5zm-46.098 209c-1.102 25-5.301 38.5-8.801 47.5-8.602 22.3-26.301 40-48.602 48.602-9 3.5-22.597 7.699-47.5 8.796-27 1.204-35.097 1.5-103.398 1.5s-76.5-.296-103.403-1.5c-25-1.097-38.5-5.296-47.5-8.796C94.551 451.5 84.45 445 76.25 436.5c-8.5-8.3-15-18.3-19.102-29.398-3.5-9-7.699-22.602-8.796-47.5-1.204-27-1.5-35.102-1.5-103.403s.296-76.5 1.5-103.398c1.097-25 5.296-38.5 8.796-47.5C61.25 94.199 67.75 84.1 76.352 75.898c8.296-8.5 18.296-15 29.398-19.097 9-3.5 22.602-7.7 47.5-8.801 27-1.2 35.102-1.5 103.398-1.5 68.403 0 76.5.3 103.403 1.5 25 1.102 38.5 5.3 47.5 8.8 11.097 4.098 21.199 10.598 29.398 19.098 8.5 8.301 15 18.301 19.102 29.403 3.5 9 7.699 22.597 8.8 47.5 1.2 27 1.5 35.097 1.5 103.398s-.3 76.301-1.5 103.301zm0 0"/><path d="M256.45 124.5c-72.598 0-131.5 58.898-131.5 131.5s58.902 131.5 131.5 131.5c72.6 0 131.5-58.898 131.5-131.5s-58.9-131.5-131.5-131.5zm0 216.8c-47.098 0-85.302-38.198-85.302-85.3s38.204-85.3 85.301-85.3c47.102 0 85.301 38.198 85.301 85.3s-38.2 85.3-85.3 85.3zm167.402-222c0 16.954-13.747 30.7-30.704 30.7-16.953 0-30.699-13.746-30.699-30.7 0-16.956 13.746-30.698 30.7-30.698 16.956 0 30.703 13.742 30.703 30.699zm0 0"/></symbol><symbol viewBox="-42 0 512 512.002" id="login" xmlns="http://www.w3.org/2000/svg"><path d="M210.352 246.633c33.882 0 63.222-12.153 87.195-36.13 23.973-23.972 36.125-53.304 36.125-87.19 0-33.876-12.152-63.211-36.129-87.192C273.566 12.152 244.23 0 210.352 0c-33.887 0-63.22 12.152-87.192 36.125s-36.129 53.309-36.129 87.188c0 33.886 12.156 63.222 36.133 87.195 23.977 23.969 53.313 36.125 87.188 36.125zm215.777 147.07c-.692-9.976-2.09-20.86-4.149-32.351-2.078-11.579-4.753-22.524-7.957-32.528-3.308-10.34-7.808-20.55-13.37-30.336-5.774-10.156-12.555-19-20.165-26.277-7.957-7.613-17.699-13.734-28.965-18.2-11.226-4.44-23.668-6.69-36.976-6.69-5.227 0-10.281 2.144-20.043 8.5a2711.03 2711.03 0 0 1-20.879 13.46c-6.707 4.274-15.793 8.278-27.016 11.903-10.949 3.543-22.066 5.34-33.039 5.34-10.972 0-22.086-1.797-33.047-5.34-11.21-3.622-20.296-7.625-26.996-11.899a2853.13 2853.13 0 0 1-20.898-13.469c-9.75-6.355-14.809-8.5-20.035-8.5-13.313 0-25.75 2.254-36.973 6.7-11.258 4.457-21.004 10.578-28.969 18.199-7.605 7.281-14.39 16.12-20.156 26.273-5.558 9.785-10.058 19.992-13.371 30.34-3.2 10.004-5.875 20.945-7.953 32.524-2.059 11.476-3.457 22.363-4.149 32.363A438.821 438.821 0 0 0 0 423.949c0 26.727 8.496 48.363 25.25 64.32 16.547 15.747 38.441 23.735 65.066 23.735h246.532c26.625 0 48.511-7.984 65.062-23.734 16.758-15.946 25.254-37.586 25.254-64.325-.004-10.316-.351-20.492-1.035-30.242zm0 0"/></symbol><symbol viewBox="0 0 512 512" id="mail" xmlns="http://www.w3.org/2000/svg"><path d="M469.333 64H42.667C19.135 64 0 83.135 0 106.667v298.667C0 428.865 19.135 448 42.667 448h426.667C492.865 448 512 428.865 512 405.333V106.667C512 83.135 492.865 64 469.333 64zM42.667 85.333h426.667c1.572 0 2.957.573 4.432.897-36.939 33.807-159.423 145.859-202.286 184.478-3.354 3.021-8.76 6.625-15.479 6.625s-12.125-3.604-15.49-6.635C197.652 232.085 75.161 120.027 38.228 86.232c1.478-.324 2.866-.899 4.439-.899zm-21.334 320V106.667c0-2.09.63-3.986 1.194-5.896 28.272 25.876 113.736 104.06 169.152 154.453C136.443 302.671 50.957 383.719 22.46 410.893c-.503-1.814-1.127-3.588-1.127-5.56zm448 21.334H42.667c-1.704 0-3.219-.594-4.81-.974 29.447-28.072 115.477-109.586 169.742-156.009a7980.773 7980.773 0 0 0 18.63 16.858c8.792 7.938 19.083 12.125 29.771 12.125s20.979-4.188 29.76-12.115a8178.815 8178.815 0 0 0 18.641-16.868c54.268 46.418 140.286 127.926 169.742 156.009-1.591.38-3.104.974-4.81.974zm21.334-21.334c0 1.971-.624 3.746-1.126 5.56-28.508-27.188-113.984-108.227-169.219-155.668 55.418-50.393 140.869-128.57 169.151-154.456.564 1.91 1.194 3.807 1.194 5.897v298.667z"/></symbol><symbol viewBox="0 0 512 512" id="minus" xmlns="http://www.w3.org/2000/svg"><path d="M492 236H20c-11.046 0-20 8.954-20 20s8.954 20 20 20h472c11.046 0 20-8.954 20-20s-8.954-20-20-20z"/></symbol><symbol viewBox="0 0 492.004 492.004" id="next" xmlns="http://www.w3.org/2000/svg"><path d="M382.678 226.804L163.73 7.86C158.666 2.792 151.906 0 144.698 0s-13.968 2.792-19.032 7.86l-16.124 16.12c-10.492 10.504-10.492 27.576 0 38.064L293.398 245.9l-184.06 184.06c-5.064 5.068-7.86 11.824-7.86 19.028 0 7.212 2.796 13.968 7.86 19.04l16.124 16.116c5.068 5.068 11.824 7.86 19.032 7.86s13.968-2.792 19.032-7.86L382.678 265c5.076-5.084 7.864-11.872 7.848-19.088.016-7.244-2.772-14.028-7.848-19.108z"/></symbol><symbol viewBox="0 0 512 512" id="password" xmlns="http://www.w3.org/2000/svg"><path d="M437.333 192h-32v-42.667C405.333 66.99 338.344 0 256 0S106.667 66.99 106.667 149.333V192h-32A10.66 10.66 0 0 0 64 202.667v266.667C64 492.865 83.135 512 106.667 512h298.667C428.865 512 448 492.865 448 469.333V202.667A10.66 10.66 0 0 0 437.333 192zM287.938 414.823a10.67 10.67 0 0 1-10.604 11.844h-42.667a10.67 10.67 0 0 1-10.604-11.844l6.729-60.51c-10.927-7.948-17.458-20.521-17.458-34.313 0-23.531 19.135-42.667 42.667-42.667s42.667 19.135 42.667 42.667c0 13.792-6.531 26.365-17.458 34.313l6.728 60.51zM341.333 192H170.667v-42.667C170.667 102.281 208.948 64 256 64s85.333 38.281 85.333 85.333V192z"/></symbol><symbol viewBox="0 0 50.409 50.409" id="paypal-logo" xmlns="http://www.w3.org/2000/svg"><path d="M9.035 20.604a2.043 2.043 0 0 0-.75-.809 3.513 3.513 0 0 0-1.193-.438 9.75 9.75 0 0 0-1.621-.128l-2.867.002a.718.718 0 0 0-.66.524L.015 28.157c-.07.284.117.522.415.522h1.373a.703.703 0 0 0 .659-.522l.471-2.04a.703.703 0 0 1 .658-.521h.393c1.679-.002 2.979-.345 3.913-1.032.939-.688 1.402-1.597 1.402-2.723-.001-.493-.082-.907-.264-1.237zm-2.961 2.745c-.415.304-.992.456-1.736.456h-.336c-.299 0-.482-.236-.417-.524l.413-1.784c.058-.286.359-.523.654-.521l.45-.003c.525 0 .926.091 1.194.267.265.174.398.451.396.818.008.558-.205.987-.618 1.291zm42.101-3.462l-.086.026-.115.016-.141-.022-.072-.07-.033-.11-.002-.165v-.611h.459v-.189h-.459v-.381h-.227v.381h-.154v.189h.154v.711l.106.352.312.112.131-.011.139-.027v-.201zm2.129-1.028l-.328-.135-.242.049-.246.166-.143-.159-.232-.055-.223.049-.211.136v-.148h-.223v1.335h.222V19.1l.187-.116.186-.046.152.027.075.077.033.128.011.165v.763h.223v-.854l-.004-.071-.004-.065.19-.121.188-.047.147.027.08.077.028.129.015.163v.763h.224v-.867zm-34.648 2.946c-.518-.292-1.336-.438-2.454-.438-.553 0-1.104.043-1.661.129-.411.063-.451.075-.704.13-.522.114-.604.635-.604.635l-.168.691c-.095.441.159.424.265.387.228-.068.355-.138.821-.242.445-.101.914-.177 1.286-.172.549 0 .969.058 1.249.176.276.12.414.326.414.624l-.024.194-.198.122c-.779.049-1.342.121-2.025.22-.668.093-1.254.256-1.741.479-.523.23-.911.539-1.182.932-.262.395-.393.874-.393 1.436 0 .529.19.966.559 1.304.371.332.861.494 1.447.494.371-.002.658-.031.862-.08l.665-.229.563-.312.518-.342.007.01-.052.22-.003.009v.002c-.056.268.106.488.367.514l.005.006h1.275l.018-.008a.71.71 0 0 0 .591-.514l1.001-4.333.052-.353.024-.331c.004-.614-.261-1.069-.78-1.36zm-2.214 4.872l-.214.282-.54.279a1.923 1.923 0 0 1-.718.155c-.338 0-.603-.049-.782-.149l-.265-.515c0-.279.064-.5.201-.67l.582-.396c.249-.084.553-.155.905-.204.314-.039.934-.11 1.015-.112l.095.167c-.019.095-.195.831-.279 1.163zm27.152-4.866c-.521-.292-1.338-.439-2.453-.439-.553 0-1.105.043-1.66.132-.412.06-.453.073-.707.127-.521.113-.602.636-.602.636l-.168.69c-.094.441.154.421.27.387.229-.068.352-.135.814-.243.443-.1.916-.174 1.289-.172.547 0 .967.059 1.246.177.278.12.414.328.414.623l-.021.193-.196.125c-.787.047-1.351.119-2.027.218-.666.093-1.254.255-1.742.479-.521.231-.914.54-1.182.934-.265.395-.394.873-.394 1.43 0 .533.188.97.562 1.306.373.331.858.497 1.444.497.369-.004.656-.028.861-.081l.663-.226.568-.312.514-.346.009.011-.047.222-.005.004.002.004c-.062.268.101.49.365.514l.002.005h1.274l.021-.007a.703.703 0 0 0 .584-.518l1.004-4.327.053-.355.029-.332c.001-.612-.261-1.065-.784-1.356zm-2.209 4.872l-.223.285-.535.277a1.945 1.945 0 0 1-.715.155c-.349 0-.607-.05-.781-.15l-.268-.513c0-.28.065-.499.196-.672.133-.163.336-.297.588-.395a5.1 5.1 0 0 1 .904-.203c.312-.039.93-.112 1.01-.113l.097.167c-.014.095-.191.828-.273 1.162zm-4.416-6.048a2.124 2.124 0 0 0-.756-.812 3.37 3.37 0 0 0-1.193-.438 9.44 9.44 0 0 0-1.615-.126l-2.871.002a.713.713 0 0 0-.655.522l-1.931 8.406c-.07.285.122.521.414.521l1.375-.002a.712.712 0 0 0 .66-.52l.465-2.041a.712.712 0 0 1 .66-.521h.393c1.681 0 2.984-.346 3.922-1.031.927-.693 1.396-1.6 1.396-2.727-.005-.491-.09-.906-.264-1.233zm-2.961 2.749c-.414.298-.992.45-1.732.45h-.342a.411.411 0 0 1-.42-.523l.416-1.781a.698.698 0 0 1 .656-.521l.445-.003c.528.003.924.09 1.194.266.269.176.396.452.399.818.003.558-.204.988-.616 1.294zm14.734-3.534c.063-.287-.117-.52-.412-.516H44.1c-.252 0-.479.187-.59.417l-.068.106-.062.272-1.719 7.814-.056.24.002.006c-.057.257.101.451.345.488l.021.029h1.277c.25 0 .485-.19.592-.424l.066-.1 1.838-8.331-.004-.001zm-20.756 1.622c-.325.004-1.646 0-1.646 0-.296 0-.676.239-.864.524 0 0-1.966 3.374-2.157 3.713l-.228-.003-.612-3.687c-.068-.29-.371-.538-.748-.538l-1.23.002c-.296 0-.478.236-.411.524 0 0 .934 5.315 1.121 6.566.087.69-.011.813-.011.813l-1.216 2.118c-.18.288-.083.523.212.523l1.422-.002c.296 0 .685-.233.861-.522l5.47-9.252c0 .001.526-.79.037-.779z"/></symbol><symbol viewBox="0 0 512.021 512.021" id="phone" xmlns="http://www.w3.org/2000/svg"><path d="M367.988 512.021c-16.528 0-32.916-2.922-48.941-8.744-70.598-25.646-136.128-67.416-189.508-120.795S34.389 263.572 8.744 192.974c-8.241-22.688-10.673-46.108-7.226-69.612 3.229-22.016 11.757-43.389 24.663-61.809 12.963-18.501 30.245-33.889 49.977-44.5C97.2 5.738 120.167 0 144.423 0a16.002 16.002 0 0 1 15.645 12.647l25.114 117.199a16.004 16.004 0 0 1-4.331 14.667l-42.913 42.912c40.482 80.486 106.17 146.174 186.656 186.656l42.912-42.913a16.01 16.01 0 0 1 14.667-4.331l117.199 25.114a16 16 0 0 1 12.647 15.645c0 24.256-5.738 47.224-17.054 68.266-10.611 19.732-25.999 37.014-44.5 49.977-18.419 12.906-39.792 21.434-61.809 24.663a142.318 142.318 0 0 1-20.668 1.519zM131.639 32.7c-31.995 3.532-60.393 20.302-79.251 47.217-21.206 30.265-26.151 67.49-13.567 102.132C88.125 317.775 194.246 423.896 329.972 473.2c34.641 12.584 71.866 7.64 102.132-13.567 26.915-18.858 43.685-47.256 47.217-79.251l-95.341-20.43-44.816 44.816a15.998 15.998 0 0 1-18.117 3.168c-95.19-44.72-172.242-121.772-216.962-216.962a15.999 15.999 0 0 1 3.168-18.117l44.816-44.816z"/></symbol><symbol viewBox="0 0 512 512" id="plus" xmlns="http://www.w3.org/2000/svg"><path d="M492 236H276V20c0-11.046-8.954-20-20-20s-20 8.954-20 20v216H20c-11.046 0-20 8.954-20 20s8.954 20 20 20h216v216c0 11.046 8.954 20 20 20s20-8.954 20-20V276h216c11.046 0 20-8.954 20-20s-8.954-20-20-20z"/></symbol><symbol viewBox="0 0 109 80" id="roseShop-img-1" xmlns="http://www.w3.org/2000/svg"><path d="M88.243 25.578h-6.862l2.067-23.836c.004-.043.005-.086.005-.128V1.6c0-.648-.39-1.22-.962-1.469l-.015-.006a1.567 1.567 0 0 0-.109-.04l-.04-.015c-.031-.01-.062-.016-.093-.024L82.169.03c-.027-.005-.055-.008-.082-.012-.026-.004-.052-.009-.078-.011l-.013-.002-.084-.003c-.019 0-.037-.003-.056-.003H49.18a1.6 1.6 0 0 0-1.596 1.603c0 .883.715 1.604 1.596 1.604h30.936L76.94 39.839l-.001.008-.802 9.243H20.654l.928-9.619h10.564a1.6 1.6 0 0 0 1.597-1.603 1.6 1.6 0 0 0-1.597-1.603H21.892l1.96-20.306h16.812a1.6 1.6 0 0 0 1.597-1.603 1.6 1.6 0 0 0-1.597-1.603H24.161l.921-9.546h17.711a1.603 1.603 0 0 0 0-3.207H23.631c-.75 0-1.4.53-1.558 1.265l-.004.016c-.008.04-.014.08-.019.122l-.005.038-.002.008-1.09 11.304H1.597A1.6 1.6 0 0 0 0 14.356a1.6 1.6 0 0 0 1.597 1.604h19.046l-1.96 20.305h-5.696a1.6 1.6 0 0 0-1.597 1.603 1.6 1.6 0 0 0 1.597 1.603h5.387l-1.067 11.056v.005l-1.65 17.096v.005l-.001.007-.003.066c-.002.03-.005.058-.005.088v.004c0 .041.004.082.007.123a1.61 1.61 0 0 0 .021.162l.005.035c.006.031.015.061.023.091l.016.064.007.017c.077.238.208.453.38.628l.008.01c.017.017.036.032.054.048.11.101.234.187.37.255.028.014.056.029.085.04.009.005.018.007.027.01.04.017.08.032.122.045l.011.003c.047.014.095.027.144.037l.02.003a1.64 1.64 0 0 0 .299.029h7.11C25.142 75.372 30.244 80 36.406 80s11.264-4.627 12.048-10.603h25.611C74.85 75.372 79.952 80 86.114 80s11.264-4.627 12.05-10.603h7.112c.053 0 .106-.003.158-.008.009 0 .018-.002.027-.004.042-.005.083-.01.124-.018l.051-.013a.995.995 0 0 0 .094-.024l.061-.02a1.315 1.315 0 0 0 .143-.057l.07-.034a2.46 2.46 0 0 0 .128-.074 1.29 1.29 0 0 0 .123-.087l.052-.042a1.17 1.17 0 0 0 .063-.058l.044-.042a1.735 1.735 0 0 0 .164-.2l.023-.03c.026-.04.05-.08.073-.12l.004-.009c.024-.044.046-.09.066-.137.006-.013.01-.027.015-.04.013-.034.026-.067.037-.101.007-.022.012-.045.018-.068.007-.026.015-.053.021-.08.005-.024.008-.049.012-.074.004-.021.009-.042.011-.064.068-.545 1.318-10.617 1.877-17.13l.001-.018c.161-1.878.264-3.459.264-4.426 0-11.492-9.311-20.841-20.757-20.841zm-7.14 3.206h6.532l-.835 9.618h-6.532l.835-9.618zm-44.697 48.01c-4.942 0-8.963-4.038-8.963-9 0-4.963 4.02-9 8.963-9s8.964 4.037 8.964 9c0 4.962-4.021 9-8.964 9zm49.708 0c-4.943 0-8.964-4.038-8.964-9 0-4.963 4.022-9 8.964-9 4.943 0 8.964 4.037 8.964 9 0 4.962-4.021 9-8.964 9zm17.748-10.604h-5.698c-.785-5.975-5.887-10.603-12.05-10.603-6.162 0-11.264 4.628-12.049 10.603h-25.61c-.785-5.975-5.887-10.603-12.049-10.603S25.142 60.215 24.357 66.19h-5.353l1.341-13.895H77.6v.001h.002c.054 0 .107-.003.16-.008l.028-.005a1.6 1.6 0 0 0 .124-.019c.018-.003.035-.008.053-.012l.095-.025c.021-.006.041-.014.062-.021.027-.01.054-.019.08-.03.022-.009.043-.02.065-.03a.893.893 0 0 0 .07-.033l.065-.036.065-.04.06-.042a1.532 1.532 0 0 0 .454-.502c.01-.019.022-.038.031-.057.014-.025.025-.05.037-.077.01-.02.02-.04.028-.062l.028-.077.023-.07.02-.075c.006-.025.013-.05.017-.076l.012-.077a.97.97 0 0 0 .01-.08l.002-.01.8-9.224h8.253c4.892 0 7.098 2.545 9.434 5.24 1.927 2.223 4.079 4.703 7.736 5.308-.464 4.932-1.215 11.262-1.551 14.034zm1.824-17.246c-2.372-.486-3.832-2.16-5.601-4.2-2.211-2.552-4.911-5.665-10.088-6.245l.826-9.523c8.466 1.257 14.984 8.6 14.984 17.443 0 .6-.045 1.474-.121 2.525z"/><path d="M36.406 61.915c-3.228 0-5.854 2.637-5.854 5.879 0 3.241 2.626 5.878 5.854 5.878s5.855-2.637 5.855-5.878c0-3.242-2.627-5.879-5.855-5.879zm0 8.55a2.67 2.67 0 0 1-2.66-2.671 2.67 2.67 0 0 1 2.66-2.672 2.67 2.67 0 0 1 2.661 2.672 2.67 2.67 0 0 1-2.66 2.672zm49.708-8.55c-3.228 0-5.855 2.637-5.855 5.879 0 3.241 2.627 5.878 5.855 5.878 3.228 0 5.854-2.637 5.854-5.878 0-3.242-2.626-5.879-5.854-5.879zm0 8.55a2.67 2.67 0 0 1-2.661-2.671 2.67 2.67 0 0 1 2.66-2.672 2.67 2.67 0 0 1 2.662 2.672 2.67 2.67 0 0 1-2.661 2.672zM15.116 25.578H7.31a1.6 1.6 0 0 0-1.597 1.603 1.6 1.6 0 0 0 1.597 1.603h7.806a1.6 1.6 0 0 0 1.596-1.603 1.6 1.6 0 0 0-1.596-1.603z"/></symbol><symbol viewBox="0 0 72 78" id="roseShop-img-2" xmlns="http://www.w3.org/2000/svg"><path d="M68.098 43.677a28.499 28.499 0 0 0-4.878-6.074l2.384-2.397c.01-.008.016-.018.025-.027l.022-.022.015-.019.038-.047.032-.044.032-.05.028-.047c.01-.017.018-.035.026-.052l.023-.05c.008-.017.014-.034.02-.051l.019-.054a1.28 1.28 0 0 0 .014-.05l.014-.057a1.22 1.22 0 0 0 .022-.161l.003-.056a1.077 1.077 0 0 0-.004-.11l-.005-.054-.008-.053a1.036 1.036 0 0 0-.04-.162l-.018-.05a1.158 1.158 0 0 0-.1-.202l-.03-.043a1.219 1.219 0 0 0-.112-.137l-.015-.017-.025-.023-.025-.024a38.73 38.73 0 0 0-4.46-3.417c-6.444-4.243-13.781-6.412-19.816-7.21l-3.615-3.4 1.266-1.19c.482.262 1.033.41 1.617.41a3.423 3.423 0 0 0 3.411-3.427c0-1.89-1.53-3.428-3.41-3.428-1.881 0-3.411 1.538-3.411 3.428 0 .469.094.917.265 1.324L36 17.952l-1.402-1.318c.17-.408.265-.855.265-1.324 0-1.89-1.53-3.428-3.41-3.428-1.88 0-3.41 1.538-3.41 3.428s1.53 3.428 3.41 3.428c.585 0 1.136-.15 1.617-.411l1.266 1.19-3.617 3.4c-6.035.799-13.371 2.967-19.814 7.21a38.695 38.695 0 0 0-4.407 3.37c-.01.008-.017.017-.026.025l-.025.023-.015.016a1.112 1.112 0 0 0-.112.137l-.03.044a1.087 1.087 0 0 0-.1.201 1.088 1.088 0 0 0-.046.154l-.012.059-.007.05-.007.058-.002.052-.001.057a.47.47 0 0 0 .003.053c0 .019.002.037.004.056l.008.054.01.054a1.139 1.139 0 0 0 .143.36c.01.016.02.034.032.05l.032.044.038.048.014.018.026.026.022.025 2.382 2.395c-1.955 1.851-3.605 3.897-4.927 6.121C1.31 48.034-.003 53.047 0 58.577v3.046c0 2.203.433 4.343 1.285 6.362a16.394 16.394 0 0 0 3.5 5.206 16.309 16.309 0 0 0 5.18 3.516A16.045 16.045 0 0 0 16.295 78h2.584a1.14 1.14 0 0 0 1.136-1.142 1.14 1.14 0 0 0-1.136-1.143h-2.584c-1.886 0-3.716-.375-5.442-1.11a14.09 14.09 0 0 1-4.46-3.03 14.116 14.116 0 0 1-3.014-4.483 13.968 13.968 0 0 1-1.105-5.469v-3.047c0-2.643.323-5.172.96-7.52a24.904 24.904 0 0 1 2.62-6.207c1.575-2.653 3.68-5.055 6.259-7.14 2.314-1.873 4.999-3.485 7.982-4.795a42.593 42.593 0 0 1 8.405-2.681c2.6-.544 5.188-.832 7.482-.832h.054c3.117 0 6.755.538 10.245 1.511a42.56 42.56 0 0 1 5.636 2.007 36.684 36.684 0 0 1 5.439 2.941c3.759 2.477 6.716 5.502 8.79 8.989a24.968 24.968 0 0 1 2.62 6.208c.636 2.347.96 4.876.96 7.52v3.046c0 1.894-.371 3.734-1.105 5.47a14.112 14.112 0 0 1-3.015 4.481 14.066 14.066 0 0 1-4.46 3.03 13.795 13.795 0 0 1-5.44 1.111h-32.28A1.142 1.142 0 0 0 23.427 78h32.278a16.051 16.051 0 0 0 6.33-1.293 16.306 16.306 0 0 0 5.18-3.516 16.417 16.417 0 0 0 3.5-5.206A16.275 16.275 0 0 0 72 61.623v-3.047c.003-5.528-1.31-10.54-3.902-14.899zm-27.55-29.51a1.14 1.14 0 0 1 1.136 1.143c0 .63-.51 1.143-1.137 1.143a1.14 1.14 0 0 1-1.136-1.143c0-.63.51-1.143 1.136-1.143zm-9.095 2.286a1.14 1.14 0 0 1-1.137-1.143c0-.63.51-1.143 1.137-1.143a1.14 1.14 0 0 1 1.137 1.143c0 .63-.51 1.143-1.137 1.143zm4.546 4.628l1.6 1.504a35.777 35.777 0 0 0-1.6-.039c-.512 0-1.047.014-1.6.039l1.6-1.504zm25.51 15.01l-.196-.162c-2.467-1.997-5.327-3.716-8.498-5.11a44.98 44.98 0 0 0-8.863-2.826c-2.738-.572-5.487-.876-7.953-.877-1.624.003-3.352.13-5.138.384a44.933 44.933 0 0 0-11.676 3.32 39.547 39.547 0 0 0-5.787 3.13 34.218 34.218 0 0 0-2.856 2.096L8.925 34.42a37.123 37.123 0 0 1 3.226-2.382c6.181-4.07 13.226-6.132 18.99-6.875a1.131 1.131 0 0 0 .41-.052 37.875 37.875 0 0 1 4.448-.28c1.366 0 2.89.091 4.52.288.073.017.147.027.221.03 5.785.728 12.884 2.79 19.108 6.89a37.029 37.029 0 0 1 3.28 2.425l-1.619 1.627zM60.253 0c-4.806 0-8.716 3.93-8.716 8.76v4.57c0 4.831 3.91 8.76 8.716 8.76 4.806 0 8.716-3.929 8.716-8.76V8.76c0-4.83-3.91-8.76-8.716-8.76zm0 19.805c-3.034 0-5.584-2.119-6.263-4.962a8.668 8.668 0 0 0 6.263 2.677 8.668 8.668 0 0 0 6.263-2.677c-.68 2.843-3.229 4.962-6.263 4.962zm0-4.57c-3.552 0-6.443-2.904-6.443-6.475 0-3.57 2.89-6.475 6.443-6.475 3.552 0 6.442 2.905 6.442 6.475s-2.89 6.475-6.442 6.475z"/><path d="M14.021 5.788c-3.552 0-6.442 2.905-6.442 6.475v4.57c0 3.57 2.89 6.475 6.442 6.475 3.553 0 6.443-2.904 6.443-6.475v-4.57c0-3.57-2.89-6.475-6.442-6.475zm0 15.235c-2.172 0-3.96-1.68-4.15-3.814a6.392 6.392 0 0 0 4.15 1.529 6.39 6.39 0 0 0 4.151-1.529c-.19 2.135-1.978 3.814-4.15 3.814zm0-4.57c-2.298 0-4.168-1.88-4.168-4.19 0-2.31 1.87-4.19 4.168-4.19 2.299 0 4.169 1.88 4.169 4.19 0 2.31-1.87 4.19-4.169 4.19z"/><path d="M14.021 9.597a1.14 1.14 0 0 0-1.137 1.143v3.046a1.14 1.14 0 0 0 1.137 1.143 1.14 1.14 0 0 0 1.137-1.143V10.74a1.14 1.14 0 0 0-1.137-1.143zm46.14-3.503a1.14 1.14 0 0 0-1.137 1.143v3.047a1.14 1.14 0 0 0 1.137 1.142 1.14 1.14 0 0 0 1.137-1.142V7.237a1.14 1.14 0 0 0-1.137-1.143z"/></symbol><symbol viewBox="0 0 79 78" id="roseShop-img-3" xmlns="http://www.w3.org/2000/svg"><path d="M78.999 52.1a1.17 1.17 0 0 0-.004-.072l-.005-.047a1.097 1.097 0 0 0-.01-.064l-.012-.055a1.145 1.145 0 0 0-.08-.227l-.01-.024-3.086-6.179-.007-.012a1.066 1.066 0 0 0-.036-.063c-.008-.014-.015-.027-.024-.04a.955.955 0 0 0-.034-.049l-.035-.046-.03-.035-.045-.05-.03-.028a.99.99 0 0 0-.052-.047l-.037-.029c-.017-.012-.033-.026-.05-.037-.017-.012-.035-.022-.052-.033l-.04-.025-.068-.034-.03-.014a1.043 1.043 0 0 0-.077-.03l-.028-.01a1.19 1.19 0 0 0-.074-.021l-.035-.009a1.228 1.228 0 0 0-.067-.012l-.048-.007a1.22 1.22 0 0 0-.118-.008l-.018-.001H48.989l-.023.001a1.546 1.546 0 0 0-.174.017l-.058.01-.05.014a.935.935 0 0 0-.107.035l-.055.022a1.055 1.055 0 0 0-.051.025c-.016.008-.032.015-.047.024l-.054.032c-.013.01-.027.018-.04.027a1.175 1.175 0 0 0-.09.069l-.045.04a1.033 1.033 0 0 0-.117.129l-.015.018-4.629 6.178-.014.021a1.138 1.138 0 0 0-.093.154l-.022.047a.897.897 0 0 0-.042.107 1.379 1.379 0 0 0-.03.111 1.102 1.102 0 0 0-.028.23l-.002.026v24.713c0 .64.518 1.158 1.157 1.158h33.483c.639 0 1.157-.518 1.157-1.158V52.129l-.001-.029zm-4.957-4.991l1.928 3.861H64.438l-.483-3.861h10.087zm-13.462 0h1.043l.482 3.861h-2.007l.482-3.861zm-.636 6.178h2.315v3.862h-2.315v-3.862zM49.568 47.11h8.68l-.482 3.861H46.675l2.893-3.861zm27.118 28.574H45.518V53.287H57.63v5.02c0 .64.518 1.159 1.157 1.159h4.629c.64 0 1.157-.519 1.157-1.159v-5.02h12.113v22.396z"/><path d="M66.509 11.423C59.15 4.057 49.367 0 38.96 0S18.77 4.057 11.411 11.423C4.053 18.79 0 28.583 0 39c0 10.417 4.053 20.211 11.411 27.577C18.77 73.944 28.553 78 38.96 78c.265 0 .53-.002.794-.008a1.158 1.158 0 0 0 1.134-1.18 1.15 1.15 0 0 0-1.18-1.136c-.248.005-.498.007-.748.007-6.875 0-13.46-1.884-19.17-5.406h5.9a5.796 5.796 0 0 0 5.787-5.792 5.796 5.796 0 0 0-5.787-5.792h-6.226a5.767 5.767 0 0 0 1.16-3.475c0-3.194-2.595-5.793-5.786-5.793H3.81A36.87 36.87 0 0 1 2.314 39c0-9.798 3.812-19.01 10.734-25.939C19.969 6.133 29.17 2.317 38.96 2.317c3.032 0 6.008.367 8.878 1.079a5.798 5.798 0 0 0-1.549 3.94c0 1.303.432 2.507 1.16 3.475H36.594a5.796 5.796 0 0 0-5.786 5.792 5.795 5.795 0 0 0 5.786 5.792h4.683a5.767 5.767 0 0 0-1.16 3.476c0 1.303.432 2.506 1.16 3.475H27.336c-3.19 0-5.786 2.598-5.786 5.792s2.595 5.792 5.786 5.792h48.22a37.18 37.18 0 0 1-.138 1.815 1.158 1.158 0 1 0 2.302.233c.133-1.313.2-2.65.2-3.978 0-10.417-4.053-20.21-11.411-27.577zm-51.67 40.32a3.477 3.477 0 0 1 3.47 3.475 3.477 3.477 0 0 1-3.47 3.475 1.158 1.158 0 0 0 0 2.317H25.69a3.478 3.478 0 0 1 3.472 3.475 3.478 3.478 0 0 1-3.472 3.475h-9.232a37.26 37.26 0 0 1-3.41-3.021 36.571 36.571 0 0 1-8.47-13.197h10.26zm12.497-13.13a3.477 3.477 0 0 1-3.472-3.475 3.478 3.478 0 0 1 3.472-3.475h18.568a1.158 1.158 0 0 0 0-2.317 3.478 3.478 0 0 1-3.472-3.475 3.478 3.478 0 0 1 3.471-3.476 1.158 1.158 0 0 0 0-2.316h-9.309a3.478 3.478 0 0 1-3.472-3.476 3.478 3.478 0 0 1 3.472-3.475h15.481a1.158 1.158 0 0 0 0-2.317 3.478 3.478 0 0 1-3.471-3.475c0-1.35.787-2.57 1.989-3.14 5.32 1.776 10.197 4.779 14.28 8.865 6.83 6.837 10.629 15.899 10.728 25.552H27.336z"/></symbol><symbol viewBox="0 0 60 60" id="time" xmlns="http://www.w3.org/2000/svg"><path d="M30 0C13.458 0 0 13.458 0 30s13.458 30 30 30 30-13.458 30-30S46.542 0 30 0zm0 58C14.561 58 2 45.439 2 30S14.561 2 30 2s28 12.561 28 28-12.561 28-28 28z"/><path d="M30 6a1 1 0 0 0-1 1v23H14a1 1 0 1 0 0 2h16a1 1 0 0 0 1-1V7a1 1 0 0 0-1-1z"/></symbol><symbol viewBox="0 0 490.523 490.523" id="up-arrow" xmlns="http://www.w3.org/2000/svg"><path d="M487.411 355.047L252.744 120.38c-4.165-4.164-10.917-4.164-15.083 0L2.994 355.047c-4.093 4.237-3.976 10.99.262 15.083a10.666 10.666 0 0 0 14.821 0l227.115-227.115 227.115 227.136c4.237 4.093 10.99 3.976 15.083-.261 3.993-4.134 3.993-10.688 0-14.821l.021-.022z"/><path d="M479.859 373.266a10.663 10.663 0 0 1-7.552-3.115L245.192 143.015 18.077 370.151c-4.237 4.093-10.99 3.976-15.083-.262a10.666 10.666 0 0 1 0-14.821l234.667-234.667c4.165-4.164 10.917-4.164 15.083 0l234.667 234.667c4.159 4.172 4.148 10.926-.024 15.085a10.667 10.667 0 0 1-7.528 3.113z"/></symbol><symbol viewBox="0 0 512 512" id="user" xmlns="http://www.w3.org/2000/svg"><path d="M256 0c-74.439 0-135 60.561-135 135s60.561 135 135 135 135-60.561 135-135S330.439 0 256 0zm0 240c-57.897 0-105-47.103-105-105S198.103 30 256 30s105 47.103 105 105-47.103 105-105 105zm41.833 61h-83.667C144.964 301 76.669 332.951 31 401.458V512h450V401.458C435.397 333.05 367.121 301 297.833 301zm153.168 181H61v-71.363C96.031 360.683 152.952 331 214.167 331h83.667c61.215 0 118.135 29.683 153.167 79.637V482z"/></symbol><symbol viewBox="0 0 47.834 47.834" id="visa" xmlns="http://www.w3.org/2000/svg"><path d="M19.153 16.799l-2.431 14.266h3.888l2.433-14.266zm-5.691.016l-3.808 9.729-.406-1.469c-.751-1.77-2.883-4.312-5.386-5.914l3.482 11.897 4.114-.007 6.123-14.239-4.119.003z"/><path d="M7.772 17.836c-.226-.869-.881-1.128-1.694-1.159H.05l-.05.284c4.691 1.138 7.795 3.88 9.083 7.177l-1.311-6.302zm23.151 1.698a7.178 7.178 0 0 1 2.91.546l.351.165.526-3.092c-.77-.289-1.977-.599-3.483-.599-3.842 0-6.55 1.935-6.571 4.708-.025 2.049 1.929 3.193 3.405 3.876 1.515.7 2.023 1.145 2.016 1.77-.012.955-1.208 1.393-2.325 1.393-1.557 0-2.384-.215-3.661-.747l-.501-.228-.547 3.193c.91.399 2.589.742 4.332.76 4.087 0 6.743-1.912 6.771-4.875.017-1.621-1.02-2.858-3.267-3.873-1.36-.662-2.192-1.102-2.184-1.77 0-.593.706-1.227 2.228-1.227zm13.765-2.719h-3.004c-.933 0-1.627.254-2.037 1.184l-5.773 13.074h4.083s.666-1.758.817-2.143l4.979.006c.116.498.474 2.137.474 2.137h3.607l-3.146-14.258zm-4.795 9.195c.32-.819 1.549-3.987 1.549-3.987-.021.039.317-.825.518-1.362l.262 1.23.901 4.119h-3.23z"/></symbol><symbol viewBox="0 0 24 24" id="vk" xmlns="http://www.w3.org/2000/svg"><path d="M19.915 13.028c-.388-.49-.277-.708 0-1.146.005-.005 3.208-4.431 3.538-5.932l.002-.001c.164-.547 0-.949-.793-.949h-2.624c-.668 0-.976.345-1.141.731 0 0-1.336 3.198-3.226 5.271-.61.599-.892.791-1.225.791-.164 0-.419-.192-.419-.739V5.949c0-.656-.187-.949-.74-.949H9.161c-.419 0-.668.306-.668.591 0 .622.945.765 1.043 2.515v3.797c0 .832-.151.985-.486.985-.892 0-3.057-3.211-4.34-6.886-.259-.713-.512-1.001-1.185-1.001H.9c-.749 0-.9.345-.9.731 0 .682.892 4.073 4.148 8.553C6.318 17.343 9.374 19 12.154 19c1.671 0 1.875-.368 1.875-1.001 0-2.922-.151-3.198.686-3.198.388 0 1.056.192 2.616 1.667C19.114 18.217 19.407 19 20.405 19h2.624c.748 0 1.127-.368.909-1.094-.499-1.527-3.871-4.668-4.023-4.878z"/></symbol><symbol viewBox="0 0 49.888 49.888" id="webMoney" xmlns="http://www.w3.org/2000/svg"><path d="M45.903 25.934l1.17-1.058 1.058 1.17-1.171 1.058zm-2.724 1.3l1.561-1.406 1.406 1.562-1.561 1.406zm5.226-2.027l.78-.703.703.78-.78.703zm-4.585-4.102l1.172-1.055 1.055 1.172-1.172 1.055zm3.588 1.771l.779-.703.704.78-.779.702zm-42.175-.637l-.765 3.965h-.053l-1.042-3.965h-.667l-.974 3.965h-.053L.84 22.239H0l1.214 5.314h.81l.989-3.741h.053l1.019 3.741h.81l1.215-5.314zm36.836 2.29l1.563-1.407 1.406 1.562-1.563 1.407zm-1.115-2.663l1.562-1.406 1.406 1.562-1.562 1.406zm3.946 1.596l1.168-1.055 1.058 1.171-1.17 1.056zm1.504-2.902l.78-.703.703.78-.78.702zm-12.049 3.282l-.851 2.761h-.045l-.959-2.76h-.824l1.438 3.749c-.18.555-.494.959-1.004.959v.613c.861 0 1.318-.539 1.693-1.574l1.355-3.748h-.803zM9.542 25.547c.001-1.225-.576-1.83-1.513-1.83-1.124 0-1.701.823-1.701 1.963 0 1.185.518 1.964 1.776 1.964.539 0 .989-.15 1.326-.347v-.567c-.412.245-.787.389-1.191.389-.771 0-1.139-.396-1.139-1.297h2.442v-.275zm-2.427-.228c.082-.748.435-1.101.892-1.101.405 0 .787.313.824 1.101H7.115zM46.934 28.3l1.171-1.056 1.057 1.172-1.172 1.056zm-15.495-2.753c.002-1.225-.576-1.83-1.512-1.83-1.125 0-1.701.823-1.701 1.963 0 1.185.517 1.964 1.775 1.964.539 0 .987-.15 1.325-.347v-.567c-.411.245-.786.389-1.19.389-.771 0-1.14-.396-1.14-1.297h2.443v-.275zm-2.428-.228c.084-.748.437-1.101.894-1.101.403 0 .787.313.824 1.101h-1.718z"/><path d="M46.05 28.572l-1.527 1.408-2.578-2.869.717-.631-1.805-2.021.721-.632-1.832-2.019 2.859-2.574.908.994 1.533-1.368.906.939.604-.541a6.539 6.539 0 0 0-3.286-.881c-3.617 0-6.568 2.95-6.568 6.568 0 3.617 2.951 6.567 6.568 6.567a6.516 6.516 0 0 0 3.237-.856c.315-.178.602-.371.864-.574l-1.321-1.51zm-34.034-4.855c-.405 0-.787.157-1.013.277v-2.136l-.779.187v5.231c.45.239 1.064.367 1.462.367 1.087 0 1.761-.683 1.761-2.085 0-1.197-.502-1.841-1.431-1.841zm-.33 3.401c-.188 0-.449-.014-.689-.119v-2.451c.3-.165.518-.247.816-.247.502 0 .848.308.848 1.258 0 1.214-.42 1.559-.975 1.559zm14.607-3.403c-.862 0-1.574.352-1.911.554v3.282h.778v-2.967c.232-.135.615-.27.914-.27.385 0 .676.105.676.697v2.541h.779V24.84c0-.771-.338-1.123-1.236-1.125zm-7.794-1.476l-1.602 4.189h-.038l-1.679-4.189h-.906v5.314h.674V23.79h.067l1.529 3.763h.479l1.529-3.854h.067v3.854h.809v-5.314zm3.462 1.478c-.989 0-1.709.652-1.709 1.963 0 1.281.683 1.964 1.709 1.964 1.027 0 1.709-.683 1.709-1.964 0-1.312-.72-1.963-1.709-1.963zm0 3.401c-.532 0-.922-.41-.922-1.438 0-1.012.428-1.439.922-1.439.51 0 .922.427.922 1.439 0 1.027-.39 1.438-.922 1.438z"/></symbol><symbol viewBox="0 0 49.079 49.079" id="yandexMoney" xmlns="http://www.w3.org/2000/svg"><path d="M49.061 25.294c-.065-.375-.381-.6-.838-.605-.141-.002-.281.012-.418-.003-.27-.028-.341.062-.339.276.013 1.05.009 2.099.005 3.146-.003.549-.539 1.113-1.183 1.256-2 .439-3.998.885-6 1.32a3.156 3.156 0 0 1-.691.072c-.1 0-.238-.076-.281-.15-.028-.049.06-.168.129-.229.091-.074.207-.133.326-.174.367-.131.74-.25 1.111-.373 1.485-.494 2.973-.982 4.456-1.479.669-.226 1.03-.672 1.041-1.235.034-1.824.017-3.648.009-5.474 0-.289-.15-.53-.494-.655-.396-.142-.744-.029-1.088.135a6103.037 6103.037 0 0 1-6.307 3.005c-.619.295-.964.722-.961 1.33.007 1.725.002 3.447.004 5.17 0 .086.009.174.036.256.207.586.744.922 1.486.922 1.479.004 2.963.002 4.443.002 1.475 0 2.945.002 4.42-.002.32 0 .615-.066.855-.264.311-.25.295-.568.295-.885.003-1.68.003-3.358.001-5.041a1.65 1.65 0 0 0-.017-.321zm-6.15-.539c.149-.387.474-.629.97-.691.328-.042.614.161.661.457.071.456-.499.986-1.062.984-.47 0-.732-.329-.569-.75zM7.612 18.087v1.579H6.43v-1.584h-.618v3.908h.637v-1.75h1.167v1.752h.629v-3.905h-.633zm15.721 10.757c-.186-.929-.892-1.493-2.019-1.586-.444-.034-.896-.006-1.375-.006v-2.473h-.964v6.876c.713 0 1.402.041 2.082-.011 1.019-.076 1.796-.481 2.16-1.312.212-.482.216-.984.116-1.488zm-1.491 1.042c-.179.76-.957 1.118-1.895.896 0-.844-.004-1.674.008-2.506 0-.055.096-.145.165-.158.938-.199 1.565.113 1.728.896.058.281.06.59-.006.872zM4.305 15.98c-.341 0-.68.001-1.02 0a1.741 1.741 0 0 0-1.205.437c-1.123.994-.828 2.882.666 3.285l-1.524 2.294c.213 0 .377-.011.537.003.212.019.321-.05.419-.207.374-.607.771-1.205 1.159-1.807.179-.276.201-.284.623-.203v2.195h.716v-5.7c0-.297-.001-.296-.371-.297zm-.365 3.172c-.487-.005-.995.116-1.366-.249-.425-.417-.546-.899-.389-1.428.013-.042.034-.082.051-.122.316-.727.733-.929 1.704-.808v2.607zm18.063 2.277c-1.061.354-1.793.034-1.985-.89a2.528 2.528 0 0 1 .11-1.428c.236-.638.705-.828 1.485-.617.015.004.033-.003.06-.007l.245-.308c-.644-.423-1.527-.322-2.007.212-.371.412-.516.889-.563 1.39-.053.575.018 1.133.398 1.638.398.528 1.088.776 1.798.61.501-.118.557-.17.459-.6zM5.205 30.843v-6.062H1.584c-.05 1.029-.074 2.041-.156 3.051-.073.896-.271 1.775-.667 2.621-.131.279-.288.463-.688.396-.021-.003-.047.013-.073.023v2.224h1.081v-1.468h3.915V33.1h1.05v-2.257h-.841zm-1.173-.008h-2.37c.202-.506.449-1.004.599-1.521.301-1.039.299-2.105.307-3.168.002-.164 0-.33 0-.51h1.465l-.001 5.199zm11.349-9.353c-.183.053-.359.117-.543.154-.513.104-.879-.01-1.074-.333-.229-.378-.218-.784-.204-1.209h1.935c.042-.636-.036-1.232-.439-1.774-.354-.476-.967-.552-1.454-.161a1.851 1.851 0 0 0-.445.523 2.675 2.675 0 0 0-.346 1.677c.045.359.144.724.297 1.062.222.497.735.751 1.328.688a3.81 3.81 0 0 0 .844-.205c.301-.104.309-.2.101-.422zm-1.5-2.866c.218-.271.578-.263.771.021.216.315.242.663.233 1.028h-1.348c.021-.382.094-.736.344-1.049zm3.279 6.293c-.042-.051-.095-.128-.148-.13-.319-.013-.639-.008-.992-.008v2.826h-2.07v-2.821h-1.104v6.902h1.118v-2.682c0-.443 0-.443.53-.443h1.534v3.127h1.122c.005-.076.013-.141.013-.203v-6.484c0-.029.014-.065-.003-.084zm.617-5.294c.386-.444.755-.897 1.13-1.346.046-.055.086-.113.15-.197-.121 0-.192.008-.259-.001-.274-.037-.441.052-.59.248-.329.432-.694.844-1.046 1.263-.04.047-.09.088-.186.181v-1.68h-.611v3.815h.62c0-.453-.01-.897.006-1.339.006-.152.076-.304.116-.456.119.073.17.138.215.206.319.479.634.958.956 1.434.042.063.114.148.182.157.182.023.369.008.594.008-.448-.682-.866-1.326-1.294-1.967-.081-.12-.087-.207.017-.326zm14.689 5.142c-.18-.006-.261.045-.325.182-.433.954-.877 1.903-1.318 2.854-.193.416-.393.832-.588 1.248l-.053-.008v-4.259h-1.117v6.912h1.097c.697-1.506 1.394-3.018 2.097-4.543v4.539h1.262v-6.92c-.363 0-.709.01-1.055-.005zm-21.151 5.936c-.343.106-.652.227-.978.294-1.059.217-1.751-.076-2.053-.844-.233-.59-.224-1.199-.234-1.842h3.456c-.048-.535-.053-1.057-.15-1.562-.123-.633-.367-1.24-.872-1.75-.447-.451-.985-.582-1.656-.4-.697.189-1.122.627-1.408 1.146-.838 1.523-.91 3.092-.268 4.674.193.478.52.894 1.064 1.16.912.449 2.387.293 3.312-.354l-.213-.522zm-2.743-4.895c.163-.229.38-.416.744-.399.356.019.567.205.71.447.316.543.369 1.125.366 1.729H8.017c.06-.639.172-1.238.555-1.777zm3.262-4.327v-3.389H9.791c0 .254.009.482-.001.711-.034.796-.063 1.593-.395 2.355-.082.188-.143.389-.46.347v1.23h.589v-.799h2.213v.795h.557v-1.232l-.46-.018zm-.645 0H9.813c.597-.924.516-1.917.559-2.908h.817v2.908zm13.178 3.301c0 2.314 0 4.611.003 6.909h1.021v-6.214h3.113v-.695h-4.137z"/></symbol></svg>